<svg id="visual" viewBox="0 0 900 600" width="900" height="600" xmlns="http://www.w3.org/2000/svg" xmlns:xlink="http://www.w3.org/1999/xlink" version="1.1"><rect x="0" y="0" width="900" height="600" fill="#001220"></rect><defs><linearGradient id="grad1_0" x1="33.3%" y1="0%" x2="100%" y2="100%"><stop offset="20%" stop-color="#fbae3c" stop-opacity="1"></stop><stop offset="80%" stop-color="#fbae3c" stop-opacity="1"></stop></linearGradient></defs><defs><linearGradient id="grad1_1" x1="33.3%" y1="0%" x2="100%" y2="100%"><stop offset="20%" stop-color="#fbae3c" stop-opacity="1"></stop><stop offset="80%" stop-color="#cc5867" stop-opacity="1"></stop></linearGradient></defs><defs><linearGradient id="grad1_2" x1="33.3%" y1="0%" x2="100%" y2="100%"><stop offset="20%" stop-color="#593762" stop-opacity="1"></stop><stop offset="80%" stop-color="#cc5867" stop-opacity="1"></stop></linearGradient></defs><defs><linearGradient id="grad1_3" x1="33.3%" y1="0%" x2="100%" y2="100%"><stop offset="20%" stop-color="#593762" stop-opacity="1"></stop><stop offset="80%" stop-color="#001220" stop-opacity="1"></stop></linearGradient></defs><defs><linearGradient id="grad2_0" x1="0%" y1="0%" x2="66.7%" y2="100%"><stop offset="20%" stop-color="#fbae3c" stop-opacity="1"></stop><stop offset="80%" stop-color="#fbae3c" stop-opacity="1"></stop></linearGradient></defs><defs><linearGradient id="grad2_1" x1="0%" y1="0%" x2="66.7%" y2="100%"><stop offset="20%" stop-color="#cc5867" stop-opacity="1"></stop><stop offset="80%" stop-color="#fbae3c" stop-opacity="1"></stop></linearGradient></defs><defs><linearGradient id="grad2_2" x1="0%" y1="0%" x2="66.7%" y2="100%"><stop offset="20%" stop-color="#cc5867" stop-opacity="1"></stop><stop offset="80%" stop-color="#593762" stop-opacity="1"></stop></linearGradient></defs><defs><linearGradient id="grad2_3" x1="0%" y1="0%" x2="66.7%" y2="100%"><stop offset="20%" stop-color="#001220" stop-opacity="1"></stop><stop offset="80%" stop-color="#593762" stop-opacity="1"></stop></linearGradient></defs><g transform="translate(900, 0)"><path d="M0 486.7C-48.4 436 -96.7 385.2 -149.2 360.3C-201.8 335.4 -258.4 336.5 -313.2 313.2C-368.1 290 -421.1 242.5 -449.7 186.3C-478.3 130 -482.5 65 -486.7 0L0 0Z" fill="#232745"></path><path d="M0 365.1C-36.3 327 -72.6 288.9 -111.9 270.2C-151.3 251.6 -193.8 252.4 -234.9 234.9C-276.1 217.5 -315.8 181.9 -337.3 139.7C-358.7 97.5 -361.9 48.8 -365.1 0L0 0Z" fill="#96446e"></path><path d="M0 243.4C-24.2 218 -48.4 192.6 -74.6 180.2C-100.9 167.7 -129.2 168.2 -156.6 156.6C-184 145 -210.5 121.3 -224.8 93.1C-239.2 65 -241.3 32.5 -243.4 0L0 0Z" fill="#f17c53"></path><path d="M0 121.7C-12.1 109 -24.2 96.3 -37.3 90.1C-50.4 83.9 -64.6 84.1 -78.3 78.3C-92 72.5 -105.3 60.6 -112.4 46.6C-119.6 32.5 -120.6 16.3 -121.7 0L0 0Z" fill="#fbae3c"></path></g><g transform="translate(0, 600)"><path d="M0 -486.7C56.8 -455.7 113.5 -424.6 164.2 -396.3C214.8 -368.1 259.3 -342.7 310.4 -310.4C361.5 -278.2 419.2 -239.1 449.7 -186.3C480.2 -133.4 483.5 -66.7 486.7 0L0 0Z" fill="#232745"></path><path d="M0 -365.1C42.6 -341.8 85.1 -318.4 123.1 -297.3C161.1 -276.1 194.5 -257 232.8 -232.8C271.1 -208.6 314.4 -179.4 337.3 -139.7C360.1 -100.1 362.6 -50 365.1 0L0 0Z" fill="#96446e"></path><path d="M0 -243.4C28.4 -227.8 56.8 -212.3 82.1 -198.2C107.4 -184 129.7 -171.3 155.2 -155.2C180.8 -139.1 209.6 -119.6 224.8 -93.1C240.1 -66.7 241.7 -33.4 243.4 0L0 0Z" fill="#f17c53"></path><path d="M0 -121.7C14.2 -113.9 28.4 -106.1 41 -99.1C53.7 -92 64.8 -85.7 77.6 -77.6C90.4 -69.5 104.8 -59.8 112.4 -46.6C120 -33.4 120.9 -16.7 121.7 0L0 0Z" fill="#fbae3c"></path></g></svg>