<svg width="85" height="85" viewBox="0 0 85 85" fill="none" xmlns="http://www.w3.org/2000/svg">
<circle cx="42.5" cy="42.5" r="42.5" fill="black"/>
<path d="M72.1099 56.405H70.3247V25.5849C70.3247 23.6082 68.6841 22 66.6676 22H18.3322C16.3156 22 14.6751 23.6082 14.6751 25.5849V56.4051H12.89C12.3985 56.4051 12 56.7957 12 57.2775V58.322C12 60.9015 14.1407 63 16.772 63H55.8488C56.3402 63 56.7388 62.6094 56.7388 62.1277C56.7388 61.6458 56.3404 61.2552 55.8488 61.2552H16.772C15.1221 61.2552 13.7798 59.9393 13.7798 58.322V58.1499H35.025V59.7025C35.025 60.1844 35.4234 60.5749 35.9149 60.5749H49.0851C49.5765 60.5749 49.975 60.1844 49.975 59.7025V58.1499H71.2202V58.322C71.2202 59.9395 69.8778 61.2552 68.228 61.2552H62.1377C61.6463 61.2552 61.2478 61.6458 61.2478 62.1277C61.2478 62.6096 61.6462 63 62.1377 63H68.228C70.8593 63 73 60.9014 73 58.322V57.2775C72.9999 56.7955 72.6015 56.405 72.1099 56.405ZM48.1951 58.8301H36.8048V58.1497H48.1951V58.8301ZM68.545 56.3314H16.455V25.5849C16.455 24.5702 17.2971 23.7448 18.3323 23.7448H66.6677C67.7028 23.7448 68.545 24.5702 68.545 25.5849V56.3314Z" fill="white"/>
<path d="M64.4584 25.4033H20.5416C19.0902 25.4033 17.9094 26.5608 17.9094 27.9837V37.2658C17.9094 37.7477 18.3078 38.1382 18.7994 38.1382C19.291 38.1382 19.6894 37.7477 19.6894 37.2658V27.9837C19.6894 27.523 20.0717 27.1482 20.5416 27.1482H64.4583C64.9282 27.1482 65.3105 27.5231 65.3105 27.9837V40.5102V53.0367H19.6894V43.5469C19.6894 43.065 19.291 42.6744 18.7994 42.6744C18.3078 42.6744 17.9094 43.065 17.9094 43.5469V53.909C17.9094 54.3909 18.3078 54.7814 18.7994 54.7814H66.2006C66.692 54.7814 67.0906 54.3909 67.0906 53.909V27.9836C67.0904 26.5607 65.9096 25.4033 64.4584 25.4033Z" fill="white"/>
<path d="M31.6752 39.975L37.0025 42.0856V43.7207L30.0413 40.559V39.341L37.0025 36.1876V37.8227L31.6752 39.975Z" fill="white"/>
<path d="M39.8023 46.3903H38.4492L43.6233 33.2011H44.9679L39.8023 46.3903Z" fill="white"/>
<path d="M52.244 39.925L46.6189 37.7643V36.1793L53.8864 39.3327V40.5506L46.6189 43.7124V42.1106L52.244 39.925Z" fill="white"/>
<path d="M72.1099 56.405H70.3247V25.5849C70.3247 23.6082 68.6841 22 66.6676 22H18.3322C16.3156 22 14.6751 23.6082 14.6751 25.5849V56.4051H12.89C12.3985 56.4051 12 56.7957 12 57.2775V58.322C12 60.9015 14.1407 63 16.772 63H55.8488C56.3402 63 56.7388 62.6094 56.7388 62.1277C56.7388 61.6458 56.3404 61.2552 55.8488 61.2552H16.772C15.1221 61.2552 13.7798 59.9393 13.7798 58.322V58.1499H35.025V59.7025C35.025 60.1844 35.4234 60.5749 35.9149 60.5749H49.0851C49.5765 60.5749 49.975 60.1844 49.975 59.7025V58.1499H71.2202V58.322C71.2202 59.9395 69.8778 61.2552 68.228 61.2552H62.1377C61.6463 61.2552 61.2478 61.6458 61.2478 62.1277C61.2478 62.6096 61.6462 63 62.1377 63H68.228C70.8593 63 73 60.9014 73 58.322V57.2775C72.9999 56.7955 72.6015 56.405 72.1099 56.405ZM48.1951 58.8301H36.8048V58.1497H48.1951V58.8301ZM68.545 56.3314H16.455V25.5849C16.455 24.5702 17.2971 23.7448 18.3323 23.7448H66.6677C67.7028 23.7448 68.545 24.5702 68.545 25.5849V56.3314Z" stroke="white"/>
<path d="M64.4584 25.4033H20.5416C19.0902 25.4033 17.9094 26.5608 17.9094 27.9837V37.2658C17.9094 37.7477 18.3078 38.1382 18.7994 38.1382C19.291 38.1382 19.6894 37.7477 19.6894 37.2658V27.9837C19.6894 27.523 20.0717 27.1482 20.5416 27.1482H64.4583C64.9282 27.1482 65.3105 27.5231 65.3105 27.9837V40.5102V53.0367H19.6894V43.5469C19.6894 43.065 19.291 42.6744 18.7994 42.6744C18.3078 42.6744 17.9094 43.065 17.9094 43.5469V53.909C17.9094 54.3909 18.3078 54.7814 18.7994 54.7814H66.2006C66.692 54.7814 67.0906 54.3909 67.0906 53.909V27.9836C67.0904 26.5607 65.9096 25.4033 64.4584 25.4033Z" stroke="white"/>
<path d="M31.6752 39.975L37.0025 42.0856V43.7207L30.0413 40.559V39.341L37.0025 36.1876V37.8227L31.6752 39.975Z" stroke="white"/>
<path d="M39.8023 46.3903H38.4492L43.6233 33.2011H44.9679L39.8023 46.3903Z" stroke="white"/>
<path d="M52.244 39.925L46.6189 37.7643V36.1793L53.8864 39.3327V40.5506L46.6189 43.7124V42.1106L52.244 39.925Z" stroke="white"/>
</svg>
