<svg id="visual" viewBox="0 0 900 450" width="900" height="450" xmlns="http://www.w3.org/2000/svg" xmlns:xlink="http://www.w3.org/1999/xlink" version="1.1"><path d="M0 304L10 304.3C20 304.7 40 305.3 60 305C80 304.7 100 303.3 120 302.2C140 301 160 300 180 303C200 306 220 313 240 313.7C260 314.3 280 308.7 300 308C320 307.3 340 311.7 360 314.7C380 317.7 400 319.3 420 315C440 310.7 460 300.3 480 296.8C500 293.3 520 296.7 540 302C560 307.3 580 314.7 600 320C620 325.3 640 328.7 660 328C680 327.3 700 322.7 720 323C740 323.3 760 328.7 780 324.3C800 320 820 306 840 307.5C860 309 880 326 890 334.5L900 343L900 451L890 451C880 451 860 451 840 451C820 451 800 451 780 451C760 451 740 451 720 451C700 451 680 451 660 451C640 451 620 451 600 451C580 451 560 451 540 451C520 451 500 451 480 451C460 451 440 451 420 451C400 451 380 451 360 451C340 451 320 451 300 451C280 451 260 451 240 451C220 451 200 451 180 451C160 451 140 451 120 451C100 451 80 451 60 451C40 451 20 451 10 451L0 451Z" fill="#c62368"></path><path d="M0 368L10 360.2C20 352.3 40 336.7 60 334.8C80 333 100 345 120 349.3C140 353.7 160 350.3 180 352.8C200 355.3 220 363.7 240 364.3C260 365 280 358 300 355.3C320 352.7 340 354.3 360 350.3C380 346.3 400 336.7 420 332C440 327.3 460 327.7 480 335.2C500 342.7 520 357.3 540 358.7C560 360 580 348 600 342.3C620 336.7 640 337.3 660 342.5C680 347.7 700 357.3 720 360.5C740 363.7 760 360.3 780 354.3C800 348.3 820 339.7 840 331.8C860 324 880 317 890 313.5L900 310L900 451L890 451C880 451 860 451 840 451C820 451 800 451 780 451C760 451 740 451 720 451C700 451 680 451 660 451C640 451 620 451 600 451C580 451 560 451 540 451C520 451 500 451 480 451C460 451 440 451 420 451C400 451 380 451 360 451C340 451 320 451 300 451C280 451 260 451 240 451C220 451 200 451 180 451C160 451 140 451 120 451C100 451 80 451 60 451C40 451 20 451 10 451L0 451Z" fill="#e34c67"></path><path d="M0 367L10 363.2C20 359.3 40 351.7 60 350C80 348.3 100 352.7 120 354.7C140 356.7 160 356.3 180 358.5C200 360.7 220 365.3 240 367.2C260 369 280 368 300 362.5C320 357 340 347 360 346.3C380 345.7 400 354.3 420 361.7C440 369 460 375 480 371.2C500 367.3 520 353.7 540 345.3C560 337 580 334 600 338.8C620 343.7 640 356.3 660 365.2C680 374 700 379 720 380C740 381 760 378 780 377.5C800 377 820 379 840 375.8C860 372.7 880 364.3 890 360.2L900 356L900 451L890 451C880 451 860 451 840 451C820 451 800 451 780 451C760 451 740 451 720 451C700 451 680 451 660 451C640 451 620 451 600 451C580 451 560 451 540 451C520 451 500 451 480 451C460 451 440 451 420 451C400 451 380 451 360 451C340 451 320 451 300 451C280 451 260 451 240 451C220 451 200 451 180 451C160 451 140 451 120 451C100 451 80 451 60 451C40 451 20 451 10 451L0 451Z" fill="#fa7268"></path><path d="M0 394L10 388.8C20 383.7 40 373.3 60 373.5C80 373.7 100 384.3 120 384.8C140 385.3 160 375.7 180 375.5C200 375.3 220 384.7 240 387.7C260 390.7 280 387.3 300 381.5C320 375.7 340 367.3 360 368.7C380 370 400 381 420 387C440 393 460 394 480 390.3C500 386.7 520 378.3 540 371.8C560 365.3 580 360.7 600 361.3C620 362 640 368 660 372.7C680 377.3 700 380.7 720 382.2C740 383.7 760 383.3 780 384C800 384.7 820 386.3 840 385.2C860 384 880 380 890 378L900 376L900 451L890 451C880 451 860 451 840 451C820 451 800 451 780 451C760 451 740 451 720 451C700 451 680 451 660 451C640 451 620 451 600 451C580 451 560 451 540 451C520 451 500 451 480 451C460 451 440 451 420 451C400 451 380 451 360 451C340 451 320 451 300 451C280 451 260 451 240 451C220 451 200 451 180 451C160 451 140 451 120 451C100 451 80 451 60 451C40 451 20 451 10 451L0 451Z" fill="#fa7268"></path><path d="M0 391L10 390.3C20 389.7 40 388.3 60 392C80 395.7 100 404.3 120 406.5C140 408.7 160 404.3 180 399.8C200 395.3 220 390.7 240 390.2C260 389.7 280 393.3 300 393.8C320 394.3 340 391.7 360 388.8C380 386 400 383 420 382C440 381 460 382 480 388C500 394 520 405 540 406.7C560 408.3 580 400.7 600 399.7C620 398.7 640 404.3 660 402.8C680 401.3 700 392.7 720 387.7C740 382.7 760 381.3 780 382.7C800 384 820 388 840 392.5C860 397 880 402 890 404.5L900 407L900 451L890 451C880 451 860 451 840 451C820 451 800 451 780 451C760 451 740 451 720 451C700 451 680 451 660 451C640 451 620 451 600 451C580 451 560 451 540 451C520 451 500 451 480 451C460 451 440 451 420 451C400 451 380 451 360 451C340 451 320 451 300 451C280 451 260 451 240 451C220 451 200 451 180 451C160 451 140 451 120 451C100 451 80 451 60 451C40 451 20 451 10 451L0 451Z" fill="#e34c67"></path><path d="M0 406L10 406C20 406 40 406 60 407.3C80 408.7 100 411.3 120 413.2C140 415 160 416 180 415.8C200 415.7 220 414.3 240 414.8C260 415.3 280 417.7 300 420C320 422.3 340 424.7 360 424.3C380 424 400 421 420 418.5C440 416 460 414 480 412.3C500 410.7 520 409.3 540 409.8C560 410.3 580 412.7 600 412.8C620 413 640 411 660 412.3C680 413.7 700 418.3 720 420.5C740 422.7 760 422.3 780 420.7C800 419 820 416 840 415.8C860 415.7 880 418.3 890 419.7L900 421L900 451L890 451C880 451 860 451 840 451C820 451 800 451 780 451C760 451 740 451 720 451C700 451 680 451 660 451C640 451 620 451 600 451C580 451 560 451 540 451C520 451 500 451 480 451C460 451 440 451 420 451C400 451 380 451 360 451C340 451 320 451 300 451C280 451 260 451 240 451C220 451 200 451 180 451C160 451 140 451 120 451C100 451 80 451 60 451C40 451 20 451 10 451L0 451Z" fill="#c62368"></path></svg>