<svg id="visual" viewBox="0 0 2260 700" width="2260" height="700" xmlns="http://www.w3.org/2000/svg" xmlns:xlink="http://www.w3.org/1999/xlink" version="1.1"><path d="M0 15L31.3 20.8C62.7 26.7 125.3 38.3 188.2 39.5C251 40.7 314 31.3 376.8 25.5C439.7 19.7 502.3 17.3 565 18.5C627.7 19.7 690.3 24.3 753.2 25.5C816 26.7 879 24.3 941.8 24.3C1004.7 24.3 1067.3 26.7 1130 31.3C1192.7 36 1255.3 43 1318.2 44.2C1381 45.3 1444 40.7 1506.8 38.3C1569.7 36 1632.3 36 1695 32.5C1757.7 29 1820.3 22 1883.2 23.2C1946 24.3 2009 33.7 2071.8 36C2134.7 38.3 2197.3 33.7 2228.7 31.3L2260 29L2260 0L2228.7 0C2197.3 0 2134.7 0 2071.8 0C2009 0 1946 0 1883.2 0C1820.3 0 1757.7 0 1695 0C1632.3 0 1569.7 0 1506.8 0C1444 0 1381 0 1318.2 0C1255.3 0 1192.7 0 1130 0C1067.3 0 1004.7 0 941.8 0C879 0 816 0 753.2 0C690.3 0 627.7 0 565 0C502.3 0 439.7 0 376.8 0C314 0 251 0 188.2 0C125.3 0 62.7 0 31.3 0L0 0Z" fill="#001220"></path><path d="M0 50L31.3 60.5C62.7 71 125.3 92 188.2 90.8C251 89.7 314 66.3 376.8 61.7C439.7 57 502.3 71 565 75.7C627.7 80.3 690.3 75.7 753.2 74.5C816 73.3 879 75.7 941.8 81.5C1004.7 87.3 1067.3 96.7 1130 99C1192.7 101.3 1255.3 96.7 1318.2 94.3C1381 92 1444 92 1506.8 86.2C1569.7 80.3 1632.3 68.7 1695 65.2C1757.7 61.7 1820.3 66.3 1883.2 72.2C1946 78 2009 85 2071.8 82.7C2134.7 80.3 2197.3 68.7 2228.7 62.8L2260 57L2260 27L2228.7 29.3C2197.3 31.7 2134.7 36.3 2071.8 34C2009 31.7 1946 22.3 1883.2 21.2C1820.3 20 1757.7 27 1695 30.5C1632.3 34 1569.7 34 1506.8 36.3C1444 38.7 1381 43.3 1318.2 42.2C1255.3 41 1192.7 34 1130 29.3C1067.3 24.7 1004.7 22.3 941.8 22.3C879 22.3 816 24.7 753.2 23.5C690.3 22.3 627.7 17.7 565 16.5C502.3 15.3 439.7 17.7 376.8 23.5C314 29.3 251 38.7 188.2 37.5C125.3 36.3 62.7 24.7 31.3 18.8L0 13Z" fill="#172447"></path><path d="M0 155L31.3 153.8C62.7 152.7 125.3 150.3 188.2 146.8C251 143.3 314 138.7 376.8 141C439.7 143.3 502.3 152.7 565 149.2C627.7 145.7 690.3 129.3 753.2 123.5C816 117.7 879 122.3 941.8 134C1004.7 145.7 1067.3 164.3 1130 167.8C1192.7 171.3 1255.3 159.7 1318.2 157.3C1381 155 1444 162 1506.8 157.3C1569.7 152.7 1632.3 136.3 1695 130.5C1757.7 124.7 1820.3 129.3 1883.2 136.3C1946 143.3 2009 152.7 2071.8 148C2134.7 143.3 2197.3 124.7 2228.7 115.3L2260 106L2260 55L2228.7 60.8C2197.3 66.7 2134.7 78.3 2071.8 80.7C2009 83 1946 76 1883.2 70.2C1820.3 64.3 1757.7 59.7 1695 63.2C1632.3 66.7 1569.7 78.3 1506.8 84.2C1444 90 1381 90 1318.2 92.3C1255.3 94.7 1192.7 99.3 1130 97C1067.3 94.7 1004.7 85.3 941.8 79.5C879 73.7 816 71.3 753.2 72.5C690.3 73.7 627.7 78.3 565 73.7C502.3 69 439.7 55 376.8 59.7C314 64.3 251 87.7 188.2 88.8C125.3 90 62.7 69 31.3 58.5L0 48Z" fill="#4b2d66"></path><path d="M0 281L31.3 289.2C62.7 297.3 125.3 313.7 188.2 304.3C251 295 314 260 376.8 255.3C439.7 250.7 502.3 276.3 565 291.5C627.7 306.7 690.3 311.3 753.2 310.2C816 309 879 302 941.8 303.2C1004.7 304.3 1067.3 313.7 1130 314.8C1192.7 316 1255.3 309 1318.2 306.7C1381 304.3 1444 306.7 1506.8 307.8C1569.7 309 1632.3 309 1695 311.3C1757.7 313.7 1820.3 318.3 1883.2 314.8C1946 311.3 2009 299.7 2071.8 288C2134.7 276.3 2197.3 264.7 2228.7 258.8L2260 253L2260 104L2228.7 113.3C2197.3 122.7 2134.7 141.3 2071.8 146C2009 150.7 1946 141.3 1883.2 134.3C1820.3 127.3 1757.7 122.7 1695 128.5C1632.3 134.3 1569.7 150.7 1506.8 155.3C1444 160 1381 153 1318.2 155.3C1255.3 157.7 1192.7 169.3 1130 165.8C1067.3 162.3 1004.7 143.7 941.8 132C879 120.3 816 115.7 753.2 121.5C690.3 127.3 627.7 143.7 565 147.2C502.3 150.7 439.7 141.3 376.8 139C314 136.7 251 141.3 188.2 144.8C125.3 148.3 62.7 150.7 31.3 151.8L0 153Z" fill="#8a2b72"></path><path d="M0 302L31.3 310.2C62.7 318.3 125.3 334.7 188.2 332.3C251 330 314 309 376.8 307.8C439.7 306.7 502.3 325.3 565 335.8C627.7 346.3 690.3 348.7 753.2 347.5C816 346.3 879 341.7 941.8 341.7C1004.7 341.7 1067.3 346.3 1130 347.5C1192.7 348.7 1255.3 346.3 1318.2 344C1381 341.7 1444 339.3 1506.8 341.7C1569.7 344 1632.3 351 1695 354.5C1757.7 358 1820.3 358 1883.2 354.5C1946 351 2009 344 2071.8 332.3C2134.7 320.7 2197.3 304.3 2228.7 296.2L2260 288L2260 251L2228.7 256.8C2197.3 262.7 2134.7 274.3 2071.8 286C2009 297.7 1946 309.3 1883.2 312.8C1820.3 316.3 1757.7 311.7 1695 309.3C1632.3 307 1569.7 307 1506.8 305.8C1444 304.7 1381 302.3 1318.2 304.7C1255.3 307 1192.7 314 1130 312.8C1067.3 311.7 1004.7 302.3 941.8 301.2C879 300 816 307 753.2 308.2C690.3 309.3 627.7 304.7 565 289.5C502.3 274.3 439.7 248.7 376.8 253.3C314 258 251 293 188.2 302.3C125.3 311.7 62.7 295.3 31.3 287.2L0 279Z" fill="#c62368"></path><path d="M0 323L31.3 332.3C62.7 341.7 125.3 360.3 188.2 361.5C251 362.7 314 346.3 376.8 344C439.7 341.7 502.3 353.3 565 360.3C627.7 367.3 690.3 369.7 753.2 372C816 374.3 879 376.7 941.8 375.5C1004.7 374.3 1067.3 369.7 1130 368.5C1192.7 367.3 1255.3 369.7 1318.2 370.8C1381 372 1444 372 1506.8 374.3C1569.7 376.7 1632.3 381.3 1695 384.8C1757.7 388.3 1820.3 390.7 1883.2 384.8C1946 379 2009 365 2071.8 351C2134.7 337 2197.3 323 2228.7 316L2260 309L2260 286L2228.7 294.2C2197.3 302.3 2134.7 318.7 2071.8 330.3C2009 342 1946 349 1883.2 352.5C1820.3 356 1757.7 356 1695 352.5C1632.3 349 1569.7 342 1506.8 339.7C1444 337.3 1381 339.7 1318.2 342C1255.3 344.3 1192.7 346.7 1130 345.5C1067.3 344.3 1004.7 339.7 941.8 339.7C879 339.7 816 344.3 753.2 345.5C690.3 346.7 627.7 344.3 565 333.8C502.3 323.3 439.7 304.7 376.8 305.8C314 307 251 328 188.2 330.3C125.3 332.7 62.7 316.3 31.3 308.2L0 300Z" fill="#c62368"></path><path d="M0 372L31.3 379C62.7 386 125.3 400 188.2 397.7C251 395.3 314 376.7 376.8 376.7C439.7 376.7 502.3 395.3 565 402.3C627.7 409.3 690.3 404.7 753.2 405.8C816 407 879 414 941.8 412.8C1004.7 411.7 1067.3 402.3 1130 402.3C1192.7 402.3 1255.3 411.7 1318.2 412.8C1381 414 1444 407 1506.8 404.7C1569.7 402.3 1632.3 404.7 1695 409.3C1757.7 414 1820.3 421 1883.2 419.8C1946 418.7 2009 409.3 2071.8 395.3C2134.7 381.3 2197.3 362.7 2228.7 353.3L2260 344L2260 307L2228.7 314C2197.3 321 2134.7 335 2071.8 349C2009 363 1946 377 1883.2 382.8C1820.3 388.7 1757.7 386.3 1695 382.8C1632.3 379.3 1569.7 374.7 1506.8 372.3C1444 370 1381 370 1318.2 368.8C1255.3 367.7 1192.7 365.3 1130 366.5C1067.3 367.7 1004.7 372.3 941.8 373.5C879 374.7 816 372.3 753.2 370C690.3 367.7 627.7 365.3 565 358.3C502.3 351.3 439.7 339.7 376.8 342C314 344.3 251 360.7 188.2 359.5C125.3 358.3 62.7 339.7 31.3 330.3L0 321Z" fill="#c62368"></path><path d="M0 393L31.3 401.2C62.7 409.3 125.3 425.7 188.2 424.5C251 423.3 314 404.7 376.8 408.2C439.7 411.7 502.3 437.3 565 447.8C627.7 458.3 690.3 453.7 753.2 449C816 444.3 879 439.7 941.8 433.8C1004.7 428 1067.3 421 1130 423.3C1192.7 425.7 1255.3 437.3 1318.2 440.8C1381 444.3 1444 439.7 1506.8 435C1569.7 430.3 1632.3 425.7 1695 429.2C1757.7 432.7 1820.3 444.3 1883.2 444.3C1946 444.3 2009 432.7 2071.8 416.3C2134.7 400 2197.3 379 2228.7 368.5L2260 358L2260 342L2228.7 351.3C2197.3 360.7 2134.7 379.3 2071.8 393.3C2009 407.3 1946 416.7 1883.2 417.8C1820.3 419 1757.7 412 1695 407.3C1632.3 402.7 1569.7 400.3 1506.8 402.7C1444 405 1381 412 1318.2 410.8C1255.3 409.7 1192.7 400.3 1130 400.3C1067.3 400.3 1004.7 409.7 941.8 410.8C879 412 816 405 753.2 403.8C690.3 402.7 627.7 407.3 565 400.3C502.3 393.3 439.7 374.7 376.8 374.7C314 374.7 251 393.3 188.2 395.7C125.3 398 62.7 384 31.3 377L0 370Z" fill="#8a2b72"></path><path d="M0 463L31.3 470C62.7 477 125.3 491 188.2 492.2C251 493.3 314 481.7 376.8 481.7C439.7 481.7 502.3 493.3 565 498C627.7 502.7 690.3 500.3 753.2 500.3C816 500.3 879 502.7 941.8 498C1004.7 493.3 1067.3 481.7 1130 485.2C1192.7 488.7 1255.3 507.3 1318.2 513.2C1381 519 1444 512 1506.8 503.8C1569.7 495.7 1632.3 486.3 1695 489.8C1757.7 493.3 1820.3 509.7 1883.2 512C1946 514.3 2009 502.7 2071.8 488.7C2134.7 474.7 2197.3 458.3 2228.7 450.2L2260 442L2260 356L2228.7 366.5C2197.3 377 2134.7 398 2071.8 414.3C2009 430.7 1946 442.3 1883.2 442.3C1820.3 442.3 1757.7 430.7 1695 427.2C1632.3 423.7 1569.7 428.3 1506.8 433C1444 437.7 1381 442.3 1318.2 438.8C1255.3 435.3 1192.7 423.7 1130 421.3C1067.3 419 1004.7 426 941.8 431.8C879 437.7 816 442.3 753.2 447C690.3 451.7 627.7 456.3 565 445.8C502.3 435.3 439.7 409.7 376.8 406.2C314 402.7 251 421.3 188.2 422.5C125.3 423.7 62.7 407.3 31.3 399.2L0 391Z" fill="#4b2d66"></path><path d="M0 533L31.3 544.7C62.7 556.3 125.3 579.7 188.2 582C251 584.3 314 565.7 376.8 559.8C439.7 554 502.3 561 565 565.7C627.7 570.3 690.3 572.7 753.2 582C816 591.3 879 607.7 941.8 608.8C1004.7 610 1067.3 596 1130 585.5C1192.7 575 1255.3 568 1318.2 572.7C1381 577.3 1444 593.7 1506.8 599.5C1569.7 605.3 1632.3 600.7 1695 593.7C1757.7 586.7 1820.3 577.3 1883.2 576.2C1946 575 2009 582 2071.8 569.2C2134.7 556.3 2197.3 523.7 2228.7 507.3L2260 491L2260 440L2228.7 448.2C2197.3 456.3 2134.7 472.7 2071.8 486.7C2009 500.7 1946 512.3 1883.2 510C1820.3 507.7 1757.7 491.3 1695 487.8C1632.3 484.3 1569.7 493.7 1506.8 501.8C1444 510 1381 517 1318.2 511.2C1255.3 505.3 1192.7 486.7 1130 483.2C1067.3 479.7 1004.7 491.3 941.8 496C879 500.7 816 498.3 753.2 498.3C690.3 498.3 627.7 500.7 565 496C502.3 491.3 439.7 479.7 376.8 479.7C314 479.7 251 491.3 188.2 490.2C125.3 489 62.7 475 31.3 468L0 461Z" fill="#172447"></path><path d="M0 701L31.3 701C62.7 701 125.3 701 188.2 701C251 701 314 701 376.8 701C439.7 701 502.3 701 565 701C627.7 701 690.3 701 753.2 701C816 701 879 701 941.8 701C1004.7 701 1067.3 701 1130 701C1192.7 701 1255.3 701 1318.2 701C1381 701 1444 701 1506.8 701C1569.7 701 1632.3 701 1695 701C1757.7 701 1820.3 701 1883.2 701C1946 701 2009 701 2071.8 701C2134.7 701 2197.3 701 2228.7 701L2260 701L2260 489L2228.7 505.3C2197.3 521.7 2134.7 554.3 2071.8 567.2C2009 580 1946 573 1883.2 574.2C1820.3 575.3 1757.7 584.7 1695 591.7C1632.3 598.7 1569.7 603.3 1506.8 597.5C1444 591.7 1381 575.3 1318.2 570.7C1255.3 566 1192.7 573 1130 583.5C1067.3 594 1004.7 608 941.8 606.8C879 605.7 816 589.3 753.2 580C690.3 570.7 627.7 568.3 565 563.7C502.3 559 439.7 552 376.8 557.8C314 563.7 251 582.3 188.2 580C125.3 577.7 62.7 554.3 31.3 542.7L0 531Z" fill="#001220"></path></svg>