<svg id="visual" viewBox="0 0 960 540" width="960" height="540" xmlns="http://www.w3.org/2000/svg" xmlns:xlink="http://www.w3.org/1999/xlink" version="1.1"><path d="M0 12L13.3 16.5C26.7 21 53.3 30 80 30.8C106.7 31.7 133.3 24.3 160 19.8C186.7 15.3 213.3 13.7 240 14.7C266.7 15.7 293.3 19.3 320 20.2C346.7 21 373.3 19 400 19C426.7 19 453.3 21 480 24.7C506.7 28.3 533.3 33.7 560 34.5C586.7 35.3 613.3 31.7 640 29.8C666.7 28 693.3 28 720 25.3C746.7 22.7 773.3 17.3 800 18.2C826.7 19 853.3 26 880 27.8C906.7 29.7 933.3 26.3 946.7 24.7L960 23L960 0L946.7 0C933.3 0 906.7 0 880 0C853.3 0 826.7 0 800 0C773.3 0 746.7 0 720 0C693.3 0 666.7 0 640 0C613.3 0 586.7 0 560 0C533.3 0 506.7 0 480 0C453.3 0 426.7 0 400 0C373.3 0 346.7 0 320 0C293.3 0 266.7 0 240 0C213.3 0 186.7 0 160 0C133.3 0 106.7 0 80 0C53.3 0 26.7 0 13.3 0L0 0Z" fill="#001220"></path><path d="M0 39L13.3 47C26.7 55 53.3 71 80 70C106.7 69 133.3 51 160 47.5C186.7 44 213.3 55 240 58.7C266.7 62.3 293.3 58.7 320 57.7C346.7 56.7 373.3 58.3 400 62.8C426.7 67.3 453.3 74.7 480 76.5C506.7 78.3 533.3 74.7 560 72.8C586.7 71 613.3 71 640 66.5C666.7 62 693.3 53 720 50.3C746.7 47.7 773.3 51.3 800 55.8C826.7 60.3 853.3 65.7 880 63.8C906.7 62 933.3 53 946.7 48.5L960 44L960 21L946.7 22.7C933.3 24.3 906.7 27.7 880 25.8C853.3 24 826.7 17 800 16.2C773.3 15.3 746.7 20.7 720 23.3C693.3 26 666.7 26 640 27.8C613.3 29.7 586.7 33.3 560 32.5C533.3 31.7 506.7 26.3 480 22.7C453.3 19 426.7 17 400 17C373.3 17 346.7 19 320 18.2C293.3 17.3 266.7 13.7 240 12.7C213.3 11.7 186.7 13.3 160 17.8C133.3 22.3 106.7 29.7 80 28.8C53.3 28 26.7 19 13.3 14.5L0 10Z" fill="#0a1f3a"></path><path d="M0 120L13.3 119C26.7 118 53.3 116 80 113.3C106.7 110.7 133.3 107.3 160 109.2C186.7 111 213.3 118 240 115.2C266.7 112.3 293.3 99.7 320 95.2C346.7 90.7 373.3 94.3 400 103.3C426.7 112.3 453.3 126.7 480 129.3C506.7 132 533.3 123 560 121.3C586.7 119.7 613.3 125.3 640 121.8C666.7 118.3 693.3 105.7 720 101.2C746.7 96.7 773.3 100.3 800 105.7C826.7 111 853.3 118 880 114.3C906.7 110.7 933.3 96.3 946.7 89.2L960 82L960 42L946.7 46.5C933.3 51 906.7 60 880 61.8C853.3 63.7 826.7 58.3 800 53.8C773.3 49.3 746.7 45.7 720 48.3C693.3 51 666.7 60 640 64.5C613.3 69 586.7 69 560 70.8C533.3 72.7 506.7 76.3 480 74.5C453.3 72.7 426.7 65.3 400 60.8C373.3 56.3 346.7 54.7 320 55.7C293.3 56.7 266.7 60.3 240 56.7C213.3 53 186.7 42 160 45.5C133.3 49 106.7 67 80 68C53.3 69 26.7 53 13.3 45L0 37Z" fill="#262853"></path><path d="M0 217L13.3 223.3C26.7 229.7 53.3 242.3 80 235.2C106.7 228 133.3 201 160 197.3C186.7 193.7 213.3 213.3 240 225C266.7 236.7 293.3 240.3 320 239.5C346.7 238.7 373.3 233.3 400 234.2C426.7 235 453.3 242 480 242.8C506.7 243.7 533.3 238.3 560 236.7C586.7 235 613.3 237 640 238C666.7 239 693.3 239 720 240.7C746.7 242.3 773.3 245.7 800 242.8C826.7 240 853.3 231 880 222C906.7 213 933.3 204 946.7 199.5L960 195L960 80L946.7 87.2C933.3 94.3 906.7 108.7 880 112.3C853.3 116 826.7 109 800 103.7C773.3 98.3 746.7 94.7 720 99.2C693.3 103.7 666.7 116.3 640 119.8C613.3 123.3 586.7 117.7 560 119.3C533.3 121 506.7 130 480 127.3C453.3 124.7 426.7 110.3 400 101.3C373.3 92.3 346.7 88.7 320 93.2C293.3 97.7 266.7 110.3 240 113.2C213.3 116 186.7 109 160 107.2C133.3 105.3 106.7 108.7 80 111.3C53.3 114 26.7 116 13.3 117L0 118Z" fill="#4b2d66"></path><path d="M0 233L13.3 239.3C26.7 245.7 53.3 258.3 80 256.5C106.7 254.7 133.3 238.3 160 237.5C186.7 236.7 213.3 251.3 240 259.5C266.7 267.7 293.3 269.3 320 268.3C346.7 267.3 373.3 263.7 400 263.7C426.7 263.7 453.3 267.3 480 268.3C506.7 269.3 533.3 267.7 560 265.8C586.7 264 613.3 262 640 263.7C666.7 265.3 693.3 270.7 720 273.3C746.7 276 773.3 276 800 273.3C826.7 270.7 853.3 265.3 880 256.3C906.7 247.3 933.3 234.7 946.7 228.3L960 222L960 193L946.7 197.5C933.3 202 906.7 211 880 220C853.3 229 826.7 238 800 240.8C773.3 243.7 746.7 240.3 720 238.7C693.3 237 666.7 237 640 236C613.3 235 586.7 233 560 234.7C533.3 236.3 506.7 241.7 480 240.8C453.3 240 426.7 233 400 232.2C373.3 231.3 346.7 236.7 320 237.5C293.3 238.3 266.7 234.7 240 223C213.3 211.3 186.7 191.7 160 195.3C133.3 199 106.7 226 80 233.2C53.3 240.3 26.7 227.7 13.3 221.3L0 215Z" fill="#742d71"></path><path d="M0 249L13.3 256.3C26.7 263.7 53.3 278.3 80 279.3C106.7 280.3 133.3 267.7 160 265.8C186.7 264 213.3 273 240 278.3C266.7 283.7 293.3 285.3 320 287.2C346.7 289 373.3 291 400 290.2C426.7 289.3 453.3 285.7 480 284.7C506.7 283.7 533.3 285.3 560 286.2C586.7 287 613.3 287 640 288.8C666.7 290.7 693.3 294.3 720 297C746.7 299.7 773.3 301.3 800 296.8C826.7 292.3 853.3 281.7 880 271C906.7 260.3 933.3 249.7 946.7 244.3L960 239L960 220L946.7 226.3C933.3 232.7 906.7 245.3 880 254.3C853.3 263.3 826.7 268.7 800 271.3C773.3 274 746.7 274 720 271.3C693.3 268.7 666.7 263.3 640 261.7C613.3 260 586.7 262 560 263.8C533.3 265.7 506.7 267.3 480 266.3C453.3 265.3 426.7 261.7 400 261.7C373.3 261.7 346.7 265.3 320 266.3C293.3 267.3 266.7 265.7 240 257.5C213.3 249.3 186.7 234.7 160 235.5C133.3 236.3 106.7 252.7 80 254.5C53.3 256.3 26.7 243.7 13.3 237.3L0 231Z" fill="#742d71"></path><path d="M0 287L13.3 292.5C26.7 298 53.3 309 80 307.2C106.7 305.3 133.3 290.7 160 290.7C186.7 290.7 213.3 305.3 240 310.8C266.7 316.3 293.3 312.7 320 313.5C346.7 314.3 373.3 319.7 400 318.7C426.7 317.7 453.3 310.3 480 310.3C506.7 310.3 533.3 317.7 560 318.7C586.7 319.7 613.3 314.3 640 312.5C666.7 310.7 693.3 312.3 720 315.8C746.7 319.3 773.3 324.7 800 323.8C826.7 323 853.3 316 880 305.3C906.7 294.7 933.3 280.3 946.7 273.2L960 266L960 237L946.7 242.3C933.3 247.7 906.7 258.3 880 269C853.3 279.7 826.7 290.3 800 294.8C773.3 299.3 746.7 297.7 720 295C693.3 292.3 666.7 288.7 640 286.8C613.3 285 586.7 285 560 284.2C533.3 283.3 506.7 281.7 480 282.7C453.3 283.7 426.7 287.3 400 288.2C373.3 289 346.7 287 320 285.2C293.3 283.3 266.7 281.7 240 276.3C213.3 271 186.7 262 160 263.8C133.3 265.7 106.7 278.3 80 277.3C53.3 276.3 26.7 261.7 13.3 254.3L0 247Z" fill="#742d71"></path><path d="M0 303L13.3 309.3C26.7 315.7 53.3 328.3 80 327.5C106.7 326.7 133.3 312.3 160 315C186.7 317.7 213.3 337.3 240 345.5C266.7 353.7 293.3 350.3 320 346.8C346.7 343.3 373.3 339.7 400 335.2C426.7 330.7 453.3 325.3 480 327.2C506.7 329 533.3 338 560 340.7C586.7 343.3 613.3 339.7 640 336C666.7 332.3 693.3 328.7 720 331.3C746.7 334 773.3 343 800 343C826.7 343 853.3 334 880 321.3C906.7 308.7 933.3 292.3 946.7 284.2L960 276L960 264L946.7 271.2C933.3 278.3 906.7 292.7 880 303.3C853.3 314 826.7 321 800 321.8C773.3 322.7 746.7 317.3 720 313.8C693.3 310.3 666.7 308.7 640 310.5C613.3 312.3 586.7 317.7 560 316.7C533.3 315.7 506.7 308.3 480 308.3C453.3 308.3 426.7 315.7 400 316.7C373.3 317.7 346.7 312.3 320 311.5C293.3 310.7 266.7 314.3 240 308.8C213.3 303.3 186.7 288.7 160 288.7C133.3 288.7 106.7 303.3 80 305.2C53.3 307 26.7 296 13.3 290.5L0 285Z" fill="#4b2d66"></path><path d="M0 357L13.3 362.5C26.7 368 53.3 379 80 380C106.7 381 133.3 372 160 372C186.7 372 213.3 381 240 384.5C266.7 388 293.3 386 320 386C346.7 386 373.3 388 400 384.5C426.7 381 453.3 372 480 374.7C506.7 377.3 533.3 391.7 560 396.2C586.7 400.7 613.3 395.3 640 389C666.7 382.7 693.3 375.3 720 378C746.7 380.7 773.3 393.3 800 395.2C826.7 397 853.3 388 880 377.2C906.7 366.3 933.3 353.7 946.7 347.3L960 341L960 274L946.7 282.2C933.3 290.3 906.7 306.7 880 319.3C853.3 332 826.7 341 800 341C773.3 341 746.7 332 720 329.3C693.3 326.7 666.7 330.3 640 334C613.3 337.7 586.7 341.3 560 338.7C533.3 336 506.7 327 480 325.2C453.3 323.3 426.7 328.7 400 333.2C373.3 337.7 346.7 341.3 320 344.8C293.3 348.3 266.7 351.7 240 343.5C213.3 335.3 186.7 315.7 160 313C133.3 310.3 106.7 324.7 80 325.5C53.3 326.3 26.7 313.7 13.3 307.3L0 301Z" fill="#262853"></path><path d="M0 411L13.3 420C26.7 429 53.3 447 80 448.8C106.7 450.7 133.3 436.3 160 431.8C186.7 427.3 213.3 432.7 240 436.3C266.7 440 293.3 442 320 449.3C346.7 456.7 373.3 469.3 400 470.2C426.7 471 453.3 460 480 451.8C506.7 443.7 533.3 438.3 560 442C586.7 445.7 613.3 458.3 640 462.8C666.7 467.3 693.3 463.7 720 458.2C746.7 452.7 773.3 445.3 800 444.5C826.7 443.7 853.3 449.3 880 439.5C906.7 429.7 933.3 404.3 946.7 391.7L960 379L960 339L946.7 345.3C933.3 351.7 906.7 364.3 880 375.2C853.3 386 826.7 395 800 393.2C773.3 391.3 746.7 378.7 720 376C693.3 373.3 666.7 380.7 640 387C613.3 393.3 586.7 398.7 560 394.2C533.3 389.7 506.7 375.3 480 372.7C453.3 370 426.7 379 400 382.5C373.3 386 346.7 384 320 384C293.3 384 266.7 386 240 382.5C213.3 379 186.7 370 160 370C133.3 370 106.7 379 80 378C53.3 377 26.7 366 13.3 360.5L0 355Z" fill="#0a1f3a"></path><path d="M0 541L13.3 541C26.7 541 53.3 541 80 541C106.7 541 133.3 541 160 541C186.7 541 213.3 541 240 541C266.7 541 293.3 541 320 541C346.7 541 373.3 541 400 541C426.7 541 453.3 541 480 541C506.7 541 533.3 541 560 541C586.7 541 613.3 541 640 541C666.7 541 693.3 541 720 541C746.7 541 773.3 541 800 541C826.7 541 853.3 541 880 541C906.7 541 933.3 541 946.7 541L960 541L960 377L946.7 389.7C933.3 402.3 906.7 427.7 880 437.5C853.3 447.3 826.7 441.7 800 442.5C773.3 443.3 746.7 450.7 720 456.2C693.3 461.7 666.7 465.3 640 460.8C613.3 456.3 586.7 443.7 560 440C533.3 436.3 506.7 441.7 480 449.8C453.3 458 426.7 469 400 468.2C373.3 467.3 346.7 454.7 320 447.3C293.3 440 266.7 438 240 434.3C213.3 430.7 186.7 425.3 160 429.8C133.3 434.3 106.7 448.7 80 446.8C53.3 445 26.7 427 13.3 418L0 409Z" fill="#001220"></path></svg>