<svg xmlns="http://www.w3.org/2000/svg" viewBox="0 0 960 540">
  <path fill="#001220" d="M0 12l13 5c14 4 40 13 67 14s53-7 80-11c27-5 53-6 80-5l80 5c27 1 53-1 80-1s53 2 80 6c27 3 53 9 80 10 27 0 53-3 80-5s53-2 80-5c27-2 53-8 80-7s53 8 80 10 53-2 67-3l13-2V0H0z"/>
  <path fill="#0a1f3a" d="M0 39l13 8c14 8 40 24 67 23s53-19 80-22c27-4 53 7 80 11 27 3 53 0 80-1s53 0 80 5c27 4 53 12 80 14 27 1 53-2 80-4s53-2 80-6c27-5 53-14 80-17 27-2 53 1 80 6 27 4 53 10 80 8s53-11 67-15l13-5V21l-13 2c-14 1-40 5-67 3s-53-9-80-10-53 5-80 7c-27 3-53 3-80 5s-53 5-80 5c-27-1-53-7-80-10-27-4-53-6-80-6s-53 2-80 1l-80-5c-27-1-53 0-80 5-27 4-53 12-80 11S27 19 13 15L0 10z"/>
  <path fill="#262853" d="M0 120l13-1 67-6c27-2 53-6 80-4s53 9 80 6 53-15 80-20c27-4 53-1 80 8s53 24 80 26c27 3 53-6 80-8 27-1 53 4 80 1 27-4 53-16 80-21 27-4 53-1 80 5 27 5 53 12 80 8 27-3 53-18 67-25l13-7V42l-13 5c-14 4-40 13-67 15s-53-4-80-8c-27-5-53-8-80-6-27 3-53 12-80 17-27 4-53 4-80 6s-53 5-80 4c-27-2-53-10-80-14-27-5-53-6-80-5s-53 4-80 1c-27-4-53-15-80-11-27 3-53 21-80 22S27 53 13 45L0 37z"/>
  <path fill="#4b2d66" d="M0 217l13 6c14 7 40 19 67 12s53-34 80-38c27-3 53 16 80 28s53 15 80 15c27-1 53-7 80-6s53 8 80 9 53-5 80-6c27-2 53 0 80 1l80 3c27 1 53 5 80 2s53-12 80-21l67-22 13-5V80l-13 7c-14 7-40 22-67 25-27 4-53-3-80-8-27-6-53-9-80-5-27 5-53 17-80 21-27 3-53-2-80-1-27 2-53 11-80 8-27-2-53-17-80-26s-53-12-80-8c-27 5-53 17-80 20s-53-4-80-6-53 2-80 4l-67 6-13 1z"/>
  <path fill="#742d71" d="M0 233l13 6c14 7 40 19 67 18 27-2 53-19 80-19 27-1 53 13 80 22 27 8 53 9 80 8s53-4 80-4 53 3 80 4 53 0 80-2 53-4 80-2c27 1 53 7 80 9a396 396 0 00227-45l13-6v-29l-13 5-67 22c-27 9-53 18-80 21s-53-1-80-2l-80-3c-27-1-53-3-80-1-27 1-53 7-80 6s-53-8-80-9-53 5-80 6c-27 0-53-3-80-15s-53-31-80-28c-27 4-53 31-80 38s-53-5-67-12l-13-6z"/>
  <path fill="#742d71" d="M0 249l13 7c14 8 40 22 67 23s53-11 80-13 53 7 80 12c27 6 53 7 80 9s53 4 80 3l80-5c27-1 53 0 80 1l80 3 80 8c27 3 53 4 80 0 27-5 53-15 80-26l67-27 13-5v-19l-13 6c-14 7-40 19-67 28a357 357 0 01-160 17c-27-2-53-8-80-9-27-2-53 0-80 2s-53 3-80 2-53-4-80-4-53 3-80 4-53 0-80-8c-27-9-53-23-80-22-27 0-53 17-80 19-27 1-53-11-67-18l-13-6z"/>
  <path fill="#742d71" d="M0 287l13 6c14 5 40 16 67 14s53-16 80-16 53 14 80 20c27 5 53 2 80 3 27 0 53 6 80 5s53-9 80-9 53 8 80 9 53-5 80-6c27-2 53-1 80 3 27 3 53 9 80 8s53-8 80-19c27-10 53-25 67-32l13-7v-29l-13 5-67 27c-27 11-53 21-80 26-27 4-53 3-80 0l-80-8-80-3c-27-1-53-2-80-1l-80 5c-27 1-53-1-80-3s-53-3-80-9c-27-5-53-14-80-12s-53 14-80 13-53-15-67-23l-13-7z"/>
  <path fill="#4b2d66" d="M0 303l13 6c14 7 40 19 67 19 27-1 53-16 80-13s53 22 80 31c27 8 53 4 80 1l80-12c27-4 53-10 80-8s53 11 80 14c27 2 53-1 80-5s53-7 80-5c27 3 53 12 80 12s53-9 80-22c27-12 53-29 67-37l13-8v-12l-13 7c-14 7-40 22-67 32-27 11-53 18-80 19s-53-5-80-8c-27-4-53-5-80-3-27 1-53 7-80 6s-53-9-80-9-53 8-80 9-53-5-80-5c-27-1-53 2-80-3-27-6-53-20-80-20s-53 14-80 16-53-9-67-14l-13-6z"/>
  <path fill="#262853" d="M0 357l13 6c14 5 40 16 67 17s53-8 80-8 53 9 80 13c27 3 53 1 80 1s53 2 80-1c27-4 53-13 80-10 27 2 53 17 80 21 27 5 53-1 80-7s53-14 80-11 53 15 80 17 53-7 80-18l67-30 13-6v-67l-13 8c-14 8-40 25-67 37-27 13-53 22-80 22s-53-9-80-12c-27-2-53 1-80 5s-53 7-80 5c-27-3-53-12-80-14s-53 4-80 8l-80 12c-27 3-53 7-80-1-27-9-53-28-80-31s-53 12-80 13c-27 0-53-12-67-19l-13-6z"/>
  <path fill="#0a1f3a" d="M0 411l13 9c14 9 40 27 67 29s53-13 80-17c27-5 53 1 80 4 27 4 53 6 80 13 27 8 53 20 80 21s53-10 80-18 53-14 80-10 53 16 80 21c27 4 53 1 80-5 27-5 53-13 80-13 27-1 53 4 80-5 27-10 53-36 67-48l13-13v-40l-13 6-67 30c-27 11-53 20-80 18s-53-14-80-17-53 5-80 11-53 12-80 7c-27-4-53-19-80-21-27-3-53 6-80 10-27 3-53 1-80 1s-53 2-80-1c-27-4-53-13-80-13s-53 9-80 8-53-12-67-17l-13-6z"/>
  <path fill="#001220" d="M0 541h960V377l-13 13c-14 12-40 38-67 48-27 9-53 4-80 5-27 0-53 8-80 13-27 6-53 9-80 5-27-5-53-17-80-21s-53 2-80 10-53 19-80 18-53-13-80-21c-27-7-53-9-80-13-27-3-53-9-80-4-27 4-53 19-80 17s-53-20-67-29l-13-9z"/>
</svg>
