<svg id="visual" viewBox="0 0 2560 450" width="2560" height="450" xmlns="http://www.w3.org/2000/svg" xmlns:xlink="http://www.w3.org/1999/xlink" version="1.1"><path d="M0 179L16.3 180.7C32.7 182.3 65.3 185.7 98.2 189.3C131 193 164 197 196.8 191.5C229.7 186 262.3 171 295.2 167.8C328 164.7 361 173.3 393.8 181.8C426.7 190.3 459.3 198.7 492.2 192.2C525 185.7 558 164.3 590.8 150.7C623.7 137 656.3 131 689.2 137.3C722 143.7 755 162.3 787.8 164.7C820.7 167 853.3 153 886.2 159C919 165 952 191 984.8 204.7C1017.7 218.3 1050.3 219.7 1083.2 211C1116 202.3 1149 183.7 1181.8 170.3C1214.7 157 1247.3 149 1280 142.7C1312.7 136.3 1345.3 131.7 1378.2 144.7C1411 157.7 1444 188.3 1476.8 205.7C1509.7 223 1542.3 227 1575.2 217.2C1608 207.3 1641 183.7 1673.8 181.3C1706.7 179 1739.3 198 1772.2 208.3C1805 218.7 1838 220.3 1870.8 205.3C1903.7 190.3 1936.3 158.7 1969.2 154.3C2002 150 2035 173 2067.8 186C2100.7 199 2133.3 202 2166.2 194.7C2199 187.3 2232 169.7 2264.8 165.3C2297.7 161 2330.3 170 2363.2 165.5C2396 161 2429 143 2461.8 139.7C2494.7 136.3 2527.3 147.7 2543.7 153.3L2560 159L2560 0L2543.7 0C2527.3 0 2494.7 0 2461.8 0C2429 0 2396 0 2363.2 0C2330.3 0 2297.7 0 2264.8 0C2232 0 2199 0 2166.2 0C2133.3 0 2100.7 0 2067.8 0C2035 0 2002 0 1969.2 0C1936.3 0 1903.7 0 1870.8 0C1838 0 1805 0 1772.2 0C1739.3 0 1706.7 0 1673.8 0C1641 0 1608 0 1575.2 0C1542.3 0 1509.7 0 1476.8 0C1444 0 1411 0 1378.2 0C1345.3 0 1312.7 0 1280 0C1247.3 0 1214.7 0 1181.8 0C1149 0 1116 0 1083.2 0C1050.3 0 1017.7 0 984.8 0C952 0 919 0 886.2 0C853.3 0 820.7 0 787.8 0C755 0 722 0 689.2 0C656.3 0 623.7 0 590.8 0C558 0 525 0 492.2 0C459.3 0 426.7 0 393.8 0C361 0 328 0 295.2 0C262.3 0 229.7 0 196.8 0C164 0 131 0 98.2 0C65.3 0 32.7 0 16.3 0L0 0Z" fill="#C62368" stroke-linecap="round" stroke-linejoin="miter"></path></svg>