<svg width="2560" height="450" xmlns="http://www.w3.org/2000/svg"><path d="M0 179l16 2 82 8c33 4 66 8 99 3 33-6 65-21 98-24s66 5 99 14c33 8 65 17 98 10 33-6 66-28 99-41 33-14 65-20 98-14 33 7 66 25 99 28 33 2 65-12 98-6s66 32 99 46c33 13 65 15 98 6s66-27 99-41c33-13 65-21 98-27 33-7 65-11 98 2s66 43 99 61c33 17 65 21 98 11s66-33 99-36c33-2 65 17 98 27 33 11 66 12 99-3s65-46 98-51c33-4 66 19 99 32s65 16 98 9c33-8 66-25 99-30 33-4 65 5 98 1 33-5 66-23 99-26 33-4 65 8 82 13l16 6V0H0z" fill="#ff8906"/></svg>