<svg width="32" height="32" viewBox="0 0 32 32" fill="none" xmlns="http://www.w3.org/2000/svg">
<path fill-rule="evenodd" clip-rule="evenodd" d="M3 0C1.34315 0 0 1.34315 0 3V8C0 8.55228 0.447715 9 1 9H31C31.5523 9 32 8.55228 32 8V3C32 1.34315 30.6569 0 29 0H3ZM27 3H20.1111C19.5588 3 19.1111 3.44772 19.1111 4C19.1111 4.55228 19.5588 5 20.1111 5H27C27.5523 5 28 4.55228 28 4C28 3.44772 27.5523 3 27 3ZM9.33336 3.88889V4.11111C9.33336 4.60203 8.9354 5 8.44448 5C7.95356 5 7.55559 4.60203 7.55559 4.11111V3.88889C7.55559 3.39797 7.95356 3 8.44448 3C8.9354 3 9.33336 3.39797 9.33336 3.88889ZM5.77778 4.11111V3.88889C5.77778 3.39797 5.37981 3 4.88889 3C4.39797 3 4 3.39797 4 3.88889V4.11111C4 4.60203 4.39797 5 4.88889 5C5.37981 5 5.77778 4.60203 5.77778 4.11111Z" fill="white" fill-opacity="0.98"/>
<path fill-rule="evenodd" clip-rule="evenodd" d="M29 32C30.6569 32 32 30.6569 32 29V12C32 11.4477 31.5523 11 31 11H1C0.447715 11 0 11.4477 0 12V29C0 30.6569 1.34315 32 3 32H29ZM14.2669 17.1114C14.1812 17.1857 14.1169 17.2971 14.074 17.4457L12.0592 24.9248L10.0873 17.5292C10.0373 17.3714 9.9658 17.2507 9.87292 17.1671C9.78004 17.0743 9.67645 17.0279 9.56213 17.0279C9.44782 17.0279 9.34065 17.0696 9.24062 17.1532C9.14774 17.2368 9.07986 17.3575 9.037 17.5153L7.0222 24.8552L5.03955 17.4457C4.99668 17.2971 4.92881 17.1857 4.83593 17.1114C4.75019 17.0371 4.65374 17 4.54657 17C4.39653 17 4.26793 17.0604 4.16076 17.1811C4.05359 17.2925 4 17.441 4 17.6267C4 17.7289 4.01429 17.8217 4.04287 17.9053L6.41133 26.5125C6.46134 26.6704 6.53636 26.7911 6.63639 26.8747C6.74356 26.9582 6.86144 27 6.99005 27C7.11151 27 7.22582 26.9582 7.33299 26.8747C7.44016 26.7911 7.51518 26.6704 7.55805 26.5125L9.55141 19.3259L11.5019 26.5125C11.5448 26.6704 11.6198 26.7911 11.727 26.8747C11.8341 26.9582 11.9485 27 12.0699 27C12.1985 27 12.3164 26.9582 12.4236 26.8747C12.5307 26.7911 12.6093 26.6704 12.6593 26.5125L15.0278 17.9053C15.0564 17.8217 15.0707 17.7289 15.0707 17.6267C15.0707 17.441 15.0171 17.2925 14.9099 17.1811C14.8099 17.0604 14.692 17 14.5563 17C14.4491 17 14.3526 17.0371 14.2669 17.1114ZM16.6725 26.9025C16.5011 26.9025 16.3653 26.8422 16.2653 26.7214C16.1724 26.5915 16.126 26.4197 16.126 26.2061V21.993V17.7799C16.126 17.5664 16.1724 17.3993 16.2653 17.2786C16.3653 17.1486 16.5011 17.0836 16.6725 17.0836H20.6164C20.7807 17.0836 20.9058 17.1346 20.9915 17.2368C21.0844 17.3389 21.1308 17.4828 21.1308 17.6685C21.1308 17.8542 21.0844 17.9981 20.9915 18.1003C20.9058 18.1931 20.7807 18.2396 20.6164 18.2396H17.2084V21.3315H20.4021C20.5664 21.3315 20.6914 21.3825 20.7772 21.4847C20.87 21.5868 20.9165 21.7307 20.9165 21.9164C20.9165 22.1021 20.87 22.2461 20.7772 22.3482C20.6914 22.4503 20.5664 22.5014 20.4021 22.5014H17.2084V25.7465H20.6164C20.9593 25.7465 21.1308 25.9369 21.1308 26.3175C21.1308 26.5032 21.0844 26.6472 20.9915 26.7493C20.9058 26.8514 20.7807 26.9025 20.6164 26.9025H16.6725ZM27.6356 22.6964C27.3998 22.2878 27.064 22.0046 26.6282 21.8468C27.0069 21.6611 27.2998 21.3779 27.507 20.9972C27.7214 20.6165 27.8285 20.1662 27.8285 19.6462C27.8285 18.8384 27.607 18.2117 27.1641 17.766C26.7282 17.3111 26.121 17.0836 25.3422 17.0836H22.7272C22.5558 17.0836 22.42 17.1486 22.32 17.2786C22.2271 17.3993 22.1807 17.5664 22.1807 17.7799V26.2061C22.1807 26.4197 22.2271 26.5915 22.32 26.7214C22.42 26.8422 22.5558 26.9025 22.7272 26.9025H25.4601C26.2603 26.9025 26.8819 26.6704 27.3248 26.2061C27.7749 25.7326 28 25.0734 28 24.2284C28 23.6156 27.8785 23.1049 27.6356 22.6964ZM23.2631 21.3315H25.1707C26.2281 21.3315 26.7568 20.8115 26.7568 19.7716C26.7568 19.2516 26.6246 18.8663 26.3603 18.6156C26.1031 18.3649 25.7066 18.2396 25.1707 18.2396H23.2631V21.3315ZM25.3422 25.7465C25.8923 25.7465 26.296 25.6165 26.5532 25.3565C26.8104 25.0966 26.939 24.6927 26.939 24.1448C26.939 23.5877 26.8068 23.1746 26.5425 22.9053C26.2853 22.6267 25.8852 22.4875 25.3422 22.4875H23.2631V25.7465H25.3422Z" fill="white" fill-opacity="0.98"/>
</svg>
